<?xml version="1.0" encoding="utf-8"?>
<!-- Generator: Adobe Illustrator 25.2.3, SVG Export Plug-In . SVG Version: 6.00 Build 0)  -->
<svg version="1.1" id="Capa_1" xmlns="http://www.w3.org/2000/svg" xmlns:xlink="http://www.w3.org/1999/xlink" x="0px" y="0px"
	 viewBox="0 0 806.99 114.2" style="enable-background:new 0 0 806.99 114.2;" xml:space="preserve">
<style type="text/css">
	.st0{fill:#020203;}
	.st1{fill:#D6DA1C;}
	.st2{fill:#1E1E1C;}
</style>
<g>
	<g>
		<path class="st0" d="M19.07,92.79v20.82h-2.68V98.02l-6.07,10.88H9.61L3.42,98.02v15.58H0.75V92.79h2.68l6.33,11.12h0.39
			l6.24-11.12H19.07z"/>
		<path class="st0" d="M78.19,92.79h2.83v13.35c0,0.74-0.15,4.19-2.83,6.16c-1.04,0.74-2.47,1.28-4.46,1.31c0,0,0,0-0.03,0
			c-1.99-0.03-3.42-0.57-4.49-1.31c-2.68-1.96-2.79-5.41-2.79-6.16V92.79h2.79v13.35c0.09,0.86,0,4.64,4.49,4.76
			c4.52-0.12,4.43-3.9,4.52-4.76L78.19,92.79z"/>
		<path class="st0" d="M128.4,107.63h2.97c0,0,0.33,3.63,4.1,3.6c3.98-0.03,3.86-3.72,3.86-3.72c-0.09-3.42-4.1-3.3-4.1-3.3
			c-7.02,0.18-6.87-6.07-6.87-6.07c-0.12-6.01,6.9-5.68,6.9-5.68s6.72-0.24,6.81,6.36h-2.74c0,0-0.12-3.63-4.1-3.72
			c0,0-3.98-0.21-3.98,3.27c0,0-0.09,3.15,4.22,3.06c3.66-0.06,6.6,2.2,6.6,6.07c0,0,0.15,6.42-6.63,6.45
			C135.44,113.97,128.75,114.14,128.4,107.63z"/>
		<path class="st0" d="M203.58,92.79v2.68h-11.51v6.1h9.52v2.68h-9.52v6.69h11.51v2.68h-11.51h-2.68v-2.68v-6.69v-2.68v-6.1v-2.68
			H203.58z"/>
		<path class="st0" d="M266.24,99.99v6.6c0,1.04-0.86,7.64-8.33,7.61c-7.61,0-8.33-6.57-8.33-7.61v-6.6c0-1.04,0.51-7.61,8.33-7.61
			C265.59,92.37,266.24,98.95,266.24,99.99z M263.39,106.59v-6.6c0,0-0.06-4.94-5.47-5c-5.41,0.06-5.5,5-5.5,5v6.6
			c0,0,0.56,5.06,5.5,5.09C263.03,111.74,263.39,106.59,263.39,106.59z"/>
		<path class="st0" d="M379.7,92.79v20.82h-2.68l-8.68-15.58v15.58h-2.68V92.79h2.68l8.68,15.58V92.79H379.7z"/>
		<path class="st0" d="M438.71,92.79v0.03h0.86l3.54,20.79h-2.92l-1.31-7.58h-7.61l-1.31,7.58h-2.92l3.57-20.79H431v-0.03H438.71z
			 M431.75,103.2h6.66l-1.28-7.82h-4.07L431.75,103.2z"/>
		<path class="st0" d="M501.52,106.71h2.94c0,0,0.12,7.41-7.4,7.41c-7.4,0-7.67-6.63-7.67-7.67v-6.48c0-1.04,0.27-7.67,7.67-7.67
			c7.76,0,7.4,7.4,7.4,7.4h-2.88c0,0,0.12-4.64-4.31-4.64c-5.24,0-4.85,4.91-4.85,4.91v6.48c0,0-0.21,5.06,4.79,5.06
			C501.13,111.47,501.52,106.71,501.52,106.71z"/>
		<path class="st0" d="M551.78,92.79h2.68v20.82h-2.68V92.79z"/>
		<path class="st0" d="M618.75,99.99v6.6c0,1.04-0.86,7.64-8.33,7.61c-7.61,0-8.33-6.57-8.33-7.61v-6.6c0-1.04,0.51-7.61,8.33-7.61
			C618.1,92.37,618.75,98.95,618.75,99.99z M615.89,106.59v-6.6c0,0-0.06-4.94-5.47-5c-5.41,0.06-5.5,5-5.5,5v6.6
			c0,0,0.56,5.06,5.5,5.09C615.54,111.74,615.89,106.59,615.89,106.59z"/>
		<path class="st0" d="M680.14,92.79v20.82h-2.68l-8.68-15.58v15.58h-2.68V92.79h2.68l8.68,15.58V92.79H680.14z"/>
		<path class="st0" d="M739.14,92.79v0.03H740l3.54,20.79h-2.92l-1.31-7.58h-7.61l-1.31,7.58h-2.92l3.57-20.79h0.39v-0.03H739.14z
			 M732.18,103.2h6.66l-1.28-7.82h-4.07L732.18,103.2z"/>
		<path class="st0" d="M793.57,92.79v18.14h9.87v2.68h-9.87h-2.68v-2.68V92.79H793.57z"/>
	</g>
	<path d="M398.26,0c13.8,0,27.52,0,41.34,0c0,10.52,0,21.04,0,31.5c-0.57-2.36-1.04-4.82-1.77-7.2
		c-2.39-7.74-6.88-14.11-12.99-19.36c-1.65-1.42-3.43-2.68-5.2-3.94c-0.31-0.22-1.01-0.27-1.31-0.07
		c-10.28,6.89-17.2,16.11-19.55,28.45c-0.14,0.71-0.23,1.43-0.52,2.13C398.26,21.07,398.26,10.62,398.26,0z"/>
	<path d="M439.57,85.7c-13.8,0-27.52,0-41.34,0c0-10.52,0-21.04,0-31.5c0.57,2.36,1.04,4.82,1.77,7.2
		c2.39,7.74,6.88,14.11,12.99,19.36c1.65,1.42,3.43,2.68,5.2,3.94c0.31,0.22,1.01,0.27,1.31,0.07c10.28-6.89,17.2-16.11,19.55-28.45
		c0.14-0.71,0.23-1.43,0.52-2.13C439.57,64.63,439.57,75.08,439.57,85.7z"/>
	<g>
		<path class="st0" d="M425.05,40.12h-7.12v-3.99l-7.05,2.6v-4.59l7.05-2.53h7.12V40.12z"/>
	</g>
	<g id="XMLID_1_">
		<g>
			<polygon class="st1" points="806.99,16.78 806.99,68.48 803.43,68.48 794.64,16.86 792.52,16.86 792.52,16.78 			"/>
			<polygon class="st1" points="108.08,45.76 108.08,68.48 83.17,68.48 83.17,16.78 92.35,16.78 			"/>
			<path class="st2" d="M794.64,16.86l8.79,51.62h-7.23l-3.23-18.84h-18.91l-3.23,18.84h-7.23l8.84-51.62h0.96v-0.07h19.13v0.07
				H794.64z M791.78,42.63l-3.18-19.4h-10.1l-3.26,19.4H791.78z"/>
			<polygon class="st2" points="752.63,16.78 752.63,28.83 725.99,60.43 725.99,62.03 752.41,62.03 752.41,68.48 719.1,68.48 
				719.1,57.84 746.65,25.13 746.65,23.23 719.1,23.23 719.1,16.78 			"/>
			<path class="st1" d="M746.65,23.23v1.9L719.1,57.84v10.64H696.2c10.61-3.36,10.34-15.13,10.34-15.13
				c0-9.6-7.31-15.21-16.39-15.06c-10.69,0.22-10.47-7.6-10.47-7.6c0-8.64,9.87-8.12,9.87-8.12c9.9,0.22,10.2,9.21,10.2,9.21h6.79
				c-0.12-9.92-6.32-13.63-11.18-14.98h23.75v6.44H746.65z"/>
			<path class="st2" d="M706.54,53.34c0,0,0.27,11.78-10.34,15.13h-12.02c-4.86-1.41-11.06-5.13-11.58-14.84h7.38
				c0,0,0.79,8.99,10.17,8.91c9.9-0.07,9.6-9.21,9.6-9.21c-0.22-8.49-10.2-8.2-10.2-8.2c-17.4,0.44-17.06-15.06-17.06-15.06
				c-0.17-8.64,5.6-12,10.49-13.31h12.37c4.86,1.36,11.06,5.06,11.18,14.98h-6.79c0,0-0.3-8.99-10.2-9.21c0,0-9.87-0.52-9.87,8.12
				c0,0-0.22,7.83,10.47,7.6C699.23,38.14,706.54,43.74,706.54,53.34z"/>
			<path class="st2" d="M684.17,68.48h12.02c-1.73,0.54-3.75,0.89-6.12,0.89C690.07,69.36,687.41,69.44,684.17,68.48z"/>
			<path class="st2" d="M695.36,16.78h-12.37c3.55-0.96,6.64-0.81,6.64-0.81S692.22,15.87,695.36,16.78z"/>
			<rect x="653.24" y="16.78" class="st2" width="6.64" height="51.69"/>
			<rect x="640.58" y="16.78" class="st1" width="12.66" height="51.69"/>
			<polygon class="st2" points="640.58,16.78 640.58,68.48 633.94,68.48 633.94,29.79 618.88,56.8 617.1,56.8 601.75,29.79 
				601.75,68.48 595.11,68.48 595.11,16.78 601.75,16.78 617.47,44.41 618.44,44.41 633.94,16.78 			"/>
			<polygon class="st2" points="582.52,61.81 582.52,68.48 547.31,68.48 547.31,61.81 547.31,45.22 547.31,38.58 547.31,23.45 
				547.31,16.78 582.52,16.78 582.52,23.45 553.96,23.45 553.96,38.58 577.58,38.58 577.58,45.22 553.96,45.22 553.96,61.81 			"/>
			<polygon class="st1" points="547.31,61.81 547.31,68.48 534.68,68.48 534.68,16.78 547.31,16.78 547.31,23.45 547.31,38.58 
				547.31,45.22 			"/>
			<polygon class="st2" points="534.68,16.78 534.68,68.48 528.01,68.48 506.46,29.79 506.46,68.48 499.82,68.48 499.82,16.78 
				506.46,16.78 528.01,55.47 528.01,16.78 			"/>
			<path class="st1" d="M499.82,16.78v51.69h-12.64c0,0,1.04-21.58-8.05-26.22c8.2-2.96,7.97-12.1,7.97-12.1
				c0-12.94-14-13.38-15.95-13.38H499.82z"/>
			<path class="st2" d="M479.13,42.26c9.08,4.64,8.05,26.22,8.05,26.22h-7.08c0,0,0.15-14.47-2.96-19.43
				c-2.42-3.83-4.72-3.97-7.68-4.05c-4.64,0-5.97,0-10.61,0v23.48h-6.59V16.78h18.91c1.95,0,15.95,0.44,15.95,13.38
				C487.11,30.16,487.33,39.3,479.13,42.26z M473.75,38.51c5.01-0.22,6.42-3.7,6.34-8.2c-0.15-7.68-9.45-7.23-9.45-7.23h-11.8v15.43
				h0.15C460.15,38.58,470.12,38.65,473.75,38.51z"/>
			<path class="st2" d="M439.61,34.66v16.37c0,2.12-1.43,13.4-12.02,17.45h-17.38c-10.76-4.02-11.95-15.33-11.95-17.45V34.66
				c0-2.2,0.91-14.27,13.01-17.87h15.21C438.45,20.39,439.61,32.46,439.61,34.66z M432.52,51.02V34.66c0,0-0.15-12.27-13.6-12.42
				c-13.43,0.15-13.65,12.42-13.65,12.42v16.37c0,0,1.41,12.57,13.65,12.64C431.64,63.81,432.52,51.02,432.52,51.02z"/>
			<path class="st1" d="M432.52,34.66v16.37c0,0-0.89,12.79-13.6,12.64c-12.24-0.07-13.65-12.64-13.65-12.64V34.66
				c0,0,0.22-12.27,13.65-12.42C432.38,22.39,432.52,34.66,432.52,34.66z"/>
			<path class="st2" d="M410.21,68.48h17.38c-2.39,0.91-5.26,1.48-8.66,1.46C415.49,69.93,412.6,69.39,410.21,68.48z"/>
			<path class="st2" d="M426.48,16.78h-15.21c2.17-0.67,4.69-1.04,7.65-1.04C421.84,15.75,424.33,16.12,426.48,16.78z"/>
			<path class="st2" d="M375.75,42.21c3.06,0.39,10.52,2.37,10.69,12.44c0.12,10.05-5.55,13.53-11.97,13.82h-22.88V16.78h17.03
				c2.07,0,15.18,0.49,15.6,13.16C384.21,29.94,384.83,42.36,375.75,42.21z M374.49,42.11c0.42,0.07,0.81,0.1,1.21,0.1
				C375.03,42.11,374.59,42.11,374.49,42.11z M368.19,38.51c5.75,0.07,9.68-2.44,9.45-8.2c-0.3-7.9-9.9-7.53-9.9-7.53h-9.6v15.73
				h0.15C359.48,38.58,364.64,38.51,368.19,38.51z M369.75,62.48c6.05-0.15,9.5-1.38,9.6-8.1c0-8.05-10.34-7.7-10.34-7.7h-10.86
				v15.8h0.15C359.48,62.48,366.12,62.55,369.75,62.48z"/>
			<path class="st2" d="M375.7,42.21c-0.39,0-0.79-0.02-1.21-0.1C374.59,42.11,375.03,42.11,375.7,42.21z"/>
			<rect x="327.88" y="39.02" class="st2" width="11.8" height="3.48"/>
			<polygon class="st2" points="314.55,16.78 314.55,68.48 307.91,68.48 286.36,29.79 286.36,68.48 279.72,68.48 279.72,16.78 
				286.36,16.78 307.91,55.47 307.91,16.78 			"/>
			<polygon class="st1" points="279.72,16.78 279.72,68.48 266.19,68.48 266.19,61.81 237.6,61.81 237.6,45.22 261.23,45.22 
				261.23,38.58 237.6,38.58 237.6,23.45 266.19,23.45 266.19,16.78 			"/>
			<polygon class="st2" points="266.19,61.81 266.19,68.48 230.96,68.48 230.96,61.81 230.96,45.22 230.96,38.58 230.96,23.45 
				230.96,16.78 266.19,16.78 266.19,23.45 237.6,23.45 237.6,38.58 261.23,38.58 261.23,45.22 237.6,45.22 237.6,61.81 			"/>
			<path class="st2" d="M218.4,53.34c0,0,0.27,11.78-10.34,15.13h-12.02c-4.86-1.41-11.06-5.13-11.58-14.84h7.38
				c0,0,0.79,8.99,10.17,8.91c9.9-0.07,9.6-9.21,9.6-9.21c-0.22-8.49-10.2-8.2-10.2-8.2c-17.4,0.44-17.06-15.06-17.06-15.06
				c-0.17-8.64,5.6-12,10.49-13.31h12.37c4.86,1.36,11.06,5.06,11.18,14.98h-6.79c0,0-0.3-8.99-10.2-9.21c0,0-9.87-0.52-9.87,8.12
				c0,0-0.22,7.83,10.47,7.6C211.09,38.14,218.4,43.74,218.4,53.34z"/>
			<path class="st1" d="M211.61,53.34c0,0,0.3,9.13-9.6,9.21c-9.38,0.07-10.17-8.91-10.17-8.91h-7.38
				c0.52,9.7,6.71,13.43,11.58,14.84h-33.1c10.62-3.36,10.34-15.13,10.34-15.13c0-9.6-7.31-15.21-16.39-15.06
				c-10.69,0.22-10.47-7.6-10.47-7.6c0-8.64,9.87-8.12,9.87-8.12c9.9,0.22,10.2,9.21,10.2,9.21h6.79
				c-0.12-9.92-6.32-13.63-11.18-14.98h32.76c-4.89,1.31-10.66,4.67-10.49,13.31c0,0-0.35,15.5,17.06,15.06
				C201.41,45.15,211.39,44.85,211.61,53.34z"/>
			<path class="st2" d="M196.03,68.48h12.02c-1.73,0.54-3.75,0.89-6.12,0.89C201.93,69.36,199.27,69.44,196.03,68.48z"/>
			<path class="st2" d="M207.21,16.78h-12.37c3.55-0.96,6.64-0.81,6.64-0.81S204.08,15.87,207.21,16.78z"/>
			<path class="st2" d="M173.27,53.34c0,0,0.27,11.78-10.34,15.13h-12.02c-4.86-1.41-11.08-5.13-11.6-14.84h7.38
				c0,0,0.81,8.99,10.2,8.91c9.9-0.07,9.6-9.21,9.6-9.21c-0.22-8.49-10.2-8.2-10.2-8.2c-17.43,0.44-17.06-15.06-17.06-15.06
				c-0.17-8.64,5.6-12,10.49-13.31h12.37c4.86,1.36,11.06,5.06,11.18,14.98h-6.79c0,0-0.3-8.99-10.2-9.21c0,0-9.87-0.52-9.87,8.12
				c0,0-0.22,7.83,10.47,7.6C165.96,38.14,173.27,43.74,173.27,53.34z"/>
			<path class="st2" d="M150.91,68.48h12.02c-1.73,0.54-3.75,0.89-6.12,0.89C156.81,69.36,154.14,69.44,150.91,68.48z"/>
			<path class="st2" d="M162.09,16.78h-12.37c3.55-0.96,6.64-0.81,6.64-0.81S158.95,15.87,162.09,16.78z"/>
			<path class="st2" d="M131.11,16.78l-15.75,28.98v22.71h-7.28V45.76L92.35,16.78h8.02l10.57,20.37c0.3,0.54,1.06,0.54,1.33,0
				l10.81-20.37H131.11z"/>
			<polygon class="st2" points="83.17,16.78 83.17,68.48 76.5,68.48 76.5,45.89 55.1,45.89 55.1,68.48 48.46,68.48 48.46,16.78 
				55.1,16.78 55.1,39.22 76.5,39.22 76.5,16.78 			"/>
			<rect x="55.1" y="45.89" class="st1" width="21.4" height="22.59"/>
			<rect x="55.1" y="16.78" class="st1" width="21.4" height="22.44"/>
			<polygon class="st2" points="35.89,16.78 35.89,23.45 21.21,23.45 21.21,68.48 14.54,68.48 14.54,23.45 0,23.45 0,16.78 			"/>
			<rect y="23.45" class="st1" width="14.54" height="45.03"/>
		</g>
	</g>
	<g>
		<path class="st0" d="M425.05,31.61v7.12h-3.99l2.6,7.05h-4.59l-2.53-7.05v-7.12H425.05z"/>
	</g>
</g>
</svg>
